# xmcd CD database file
#
# Track frame offsets:
#	183
#	36290
#	67878
#	93368
#	122328
#	159843
#	180393
#	207488
#	235503
#	253843
#
# Disc length: 3875 seconds
#
# Revision: 2
# Processed by: cddbd v1.5.2PL0 Copyright (c) Steve Scherf et al.
# Submitted via: CDex 1.70beta2
#
DISCID=760f210a
DTITLE=Dr. Michael White - New Year's At The Village Vanguard
DYEAR=1992
DGENRE=Jazz
TTITLE0=You Tell Me Your Dreams - Introductions
TTITLE1=Canal Street
TTITLE2=Wild Man Blues
TTITLE3=By And By
TTITLE4=Weird Blues
TTITLE5=St. Phillip Street Breakdown
TTITLE6=Kiss Me Sweet
TTITLE7=Tailgate Ramble
TTITLE8=Petite Fleur
TTITLE9=Lord, Lord, Lord
EXTD=YEAR: 1992
EXTT0=
EXTT1=
EXTT2=
EXTT3=
EXTT4=
EXTT5=
EXTT6=
EXTT7=
EXTT8=
EXTT9=
PLAYORDER=
